<svg fill="none" xmlns="http://www.w3.org/2000/svg" viewBox="0 0 80 27"><path fill-rule="evenodd" clip-rule="evenodd" d="M25.254 25.905a1.958 1.958 0 01-.59-1.43c0-.558.196-1.034.59-1.431a1.941 1.941 0 011.434-.596c.562 0 1.04.198 1.434.596.393.397.59.873.59 1.43 0 .557-.197 1.034-.59 1.43a1.945 1.945 0 01-1.434.596c-.563 0-1.04-.199-1.434-.595z" fill="#3273FA" /><path fill-rule="evenodd" clip-rule="evenodd" d="M54.214 10.069V9.96c0-4.408-2.248-6.611-6.744-6.611h-5.973c-4.495 0-6.743 2.203-6.743 6.61v9.929c0 4.408 2.248 6.611 6.743 6.611h5.973c4.496 0 6.744-2.203 6.744-6.611v-5.43h-8.998l-1.56 3.439h6.704v1.99c0 2.142-.963 3.212-2.89 3.212h-5.973c-1.926 0-2.89-1.07-2.89-3.211V9.96c0-2.14.964-3.211 2.89-3.211h5.973c1.927 0 2.89 1.07 2.89 3.21v1.809l3.854-1.7zM80 10.069V9.96c0-4.408-2.249-6.611-6.744-6.611h-5.973c-4.496 0-6.744 2.203-6.744 6.61v9.929c0 4.408 2.248 6.611 6.744 6.611h5.973c4.495 0 6.743-2.203 6.743-6.611v-5.43h-8.997l-1.56 3.439h6.704v1.99c0 2.142-.963 3.212-2.89 3.212h-5.973c-1.927 0-2.89-1.07-2.89-3.211V9.96c0-2.14.963-3.211 2.89-3.211h5.973c1.927 0 2.89 1.07 2.89 3.21v1.809l3.853-1.7zM15.226 2.696v18.097c-1.806 1.02-3.7 1.536-5.632 1.536-1.932 0-3.826-.516-5.632-1.536V2.696L0 4.448v18.519l.883.59c2.674 1.788 5.686 2.733 8.711 2.733 3.025 0 6.037-.945 8.712-2.733l.882-.59V4.448l-3.962-1.752z" fill="#fff" /><path fill-rule="evenodd" clip-rule="evenodd" d="M9.493 0L7.512.876v12.966a7.164 7.164 0 001.98.284c.664 0 1.326-.095 1.982-.284V.876L9.493 0z" fill="#3273FA" /></svg>
